# xmcd
#
# Track frame offsets: 
#        150
#        21794
#        41266
#
# Disc length: 810 seconds
#
# Revision: 1
# Processed by: cddbd v1.5.2PL0 Copyright (c) Steve Scherf et al.
# Submitted via: ExactAudioCopyFreeDBPlugin 1.0
#
DISCID=17032803
DTITLE=garth brooks - that summer
DYEAR=1992
DGENRE=country
TTITLE0=that summer
TTITLE1=shameless
TTITLE2=friends in low places
EXTD=
EXTT0=
EXTT1=
EXTT2=
PLAYORDER=
